<svg width="168" height="117.99999999999999" xmlns="http://www.w3.org/2000/svg">
 <g>
  <title>Layer 1</title>
  <path fill="#fff" stroke="#000" opacity="NaN" d="m972,463" id="svg_3"/>
  <rect id="svg_39" height="0.63694" width="0" y="209.67432" x="-95.13888" stroke-width="0" stroke="#000" fill="#1e83ff"/>
  <path stroke="#000" stroke-width="0" id="svg_43" d="m48.22569,76.17027l-28.51044,-38.48929l18.77637,0l28.51044,38.48929l-28.51044,38.48926l-18.77637,0l28.51044,-38.48926z" fill="#1e83ff"/>
  <rect stroke="#000" stroke-width="0" id="svg_45" height="11.95773" width="112.63542" y="4.09868" x="2.67699" fill="#1e83ff"/>
  <path stroke="#000" stroke-width="0" id="svg_46" d="m147.80975,74.51052l-28.51044,-38.48929l18.77637,0l28.51044,38.48929l-28.51044,38.48926l-18.77637,0l28.51044,-38.48926z" fill="#1e83ff"/>
  <rect stroke="#000" stroke-width="0" id="svg_48" height="11.95773" width="105.17815" y="72.51882" x="49.75809" fill="#1e83ff"/>
  <path transform="rotate(-8.00807 82.4137 40.7707)" stroke="#000" id="svg_50" d="m68.76246,23.95274l-15.70545,15.87244l19.72507,17.76349l4.35076,-10.21088l-10.0778,-6.50172l12.40782,-7.77179l-7.95236,-7.25769l-2.74805,-1.89385zm26.6636,1.89385l-5.93965,5.46642l10.39881,9.56166l-7.44283,9.97636l10.37362,6.08878l8.95423,-16.06771l-16.34417,-15.02551z" stroke-width="0" fill="#1e83ff"/>
  <rect transform="rotate(53.7907 31.9972 41.9711)" stroke="#000" stroke-width="0" id="svg_51" height="16.02522" width="78.08846" y="33.95857" x="-7.04701" fill="#1e83ff"/>
  <path transform="rotate(53.7907 133.152 43.2994)" id="svg_52" d="m91.38288,34.75484l83.53916,0l0,17.08919l-83.53916,0l0,-17.08919z" opacity="undefined" stroke-width="0" stroke="#000" fill="#1e83ff"/>
 </g>

</svg>